<svg width="50" height="45" viewBox="0 0 50 45" fill="none" xmlns="http://www.w3.org/2000/svg">
<g clip-path="url(#clip0_170_1416)">
<path d="M49.1484 9.01733L44.1744 1.13802C43.7317 0.434361 42.9418 0 42.0997 0H11.1275C10.2855 0 9.49558 0.434361 9.05287 1.13802L4.07023 9.01733C1.50078 13.0829 3.77509 18.7383 8.57544 19.3899C8.92266 19.4333 9.27856 19.4594 9.62578 19.4594C11.8914 19.4594 13.9053 18.469 15.2855 16.9401C16.6657 18.469 18.6796 19.4594 20.9452 19.4594C23.2109 19.4594 25.2247 18.469 26.605 16.9401C27.9852 18.469 29.999 19.4594 32.2647 19.4594C34.539 19.4594 36.5442 18.469 37.9244 16.9401C39.3133 18.469 41.3185 19.4594 43.5841 19.4594C43.94 19.4594 44.2872 19.4333 44.6345 19.3899C49.4522 18.747 51.7352 13.0916 49.157 9.01733H49.1484ZM44.9904 22.1437H44.9817C44.5216 22.2045 44.0529 22.2393 43.5754 22.2393C42.499 22.2393 41.4661 22.0742 40.5025 21.7788V33.3589H12.7247V21.7702C11.7525 22.0742 10.7109 22.2393 9.63446 22.2393C9.15703 22.2393 8.6796 22.2045 8.21953 22.1437H8.21085C7.85495 22.0916 7.50773 22.0308 7.16919 21.9439V33.3589V38.9187C7.16919 41.9853 9.66051 44.4785 12.7247 44.4785H40.5025C43.5668 44.4785 46.0581 41.9853 46.0581 38.9187V33.3589V21.9439C45.7109 22.0308 45.3636 22.1003 44.9904 22.1437Z" fill="black"/>
</g>
<defs>
<clipPath id="clip0_170_1416">
<rect width="50" height="44.4785" fill="white"/>
</clipPath>
</defs>
</svg>
