<svg width="57" height="55" viewBox="0 0 57 55" fill="none" xmlns="http://www.w3.org/2000/svg">
<path d="M15.0053 10.3125C16.1986 10.3125 17.343 9.76925 18.1868 8.80227C19.0307 7.83528 19.5047 6.52377 19.5047 5.15625C19.5047 3.78873 19.0307 2.47722 18.1868 1.51023C17.343 0.543246 16.1986 0 15.0053 0C13.8119 0 12.6675 0.543246 11.8237 1.51023C10.9799 2.47722 10.5058 3.78873 10.5058 5.15625C10.5058 6.52377 10.9799 7.83528 11.8237 8.80227C12.6675 9.76925 13.8119 10.3125 15.0053 10.3125ZM14.2554 51.5625V37.8125H15.7552V51.5625C15.7552 53.4639 17.0956 55 18.7548 55C20.414 55 21.7544 53.4639 21.7544 51.5625V20.625H27.0038H33.003H34.5028C36.162 20.625 37.5024 19.0889 37.5024 17.1875C37.5024 15.2861 36.162 13.75 34.5028 13.75H33.003V6.875H51.0008V27.5H33.003V24.0625H27.0038V29.2188C27.0038 32.0654 29.0191 34.375 31.5032 34.375H52.5006C54.9846 34.375 57 32.0654 57 29.2188V5.15625C57 2.30957 54.9846 0 52.5006 0H31.5032C29.0191 0 27.0038 2.30957 27.0038 5.15625V13.75H19.7953H13.6086C10.4496 13.75 7.52495 15.6514 5.8939 18.7559L0.428963 29.1758C-0.424055 30.7979 0.0352623 32.9141 1.45071 33.8916C2.86616 34.8691 4.7128 34.3428 5.56582 32.7207L8.25611 27.5967V51.5625C8.25611 53.4639 9.59656 55 11.2557 55C12.9149 55 14.2554 53.4639 14.2554 51.5625Z" fill="black"/>
</svg>
