<svg width="57" height="42" viewBox="0 0 57 42" fill="none" xmlns="http://www.w3.org/2000/svg">
<path d="M15.0053 8.51268C16.1986 8.51268 17.343 8.1141 18.1868 7.40461C19.0307 6.69512 19.5047 5.73285 19.5047 4.72949C19.5047 3.72612 19.0307 2.76385 18.1868 2.05436C17.343 1.34487 16.1986 0.946289 15.0053 0.946289C13.8119 0.946289 12.6675 1.34487 11.8237 2.05436C10.9799 2.76385 10.5058 3.72612 10.5058 4.72949C10.5058 5.73285 10.9799 6.69512 11.8237 7.40461C12.6675 8.1141 13.8119 8.51268 15.0053 8.51268ZM14.2554 38.7783V28.6897H15.7552V38.7783C15.7552 40.1733 17.0956 41.3004 18.7548 41.3004C20.414 41.3004 21.7544 40.1733 21.7544 38.7783V16.0791H27.0038H33.003H34.5028C36.162 16.0791 37.5024 14.952 37.5024 13.5569C37.5024 12.1619 36.162 11.0348 34.5028 11.0348H33.003V5.99055H51.0008V21.1233H33.003V18.6012H27.0038V22.3844C27.0038 24.473 29.0191 26.1676 31.5032 26.1676H52.5006C54.9846 26.1676 57 24.473 57 22.3844V4.72949C57 2.64085 54.9846 0.946289 52.5006 0.946289H31.5032C29.0191 0.946289 27.0038 2.64085 27.0038 4.72949V11.0348H19.7953H13.6086C10.4496 11.0348 7.52495 12.4299 5.8939 14.7077L0.428963 22.3529C-0.424055 23.543 0.0352622 25.0957 1.45071 25.8129C2.86616 26.5302 4.7128 26.144 5.56582 24.9538L8.25611 21.1943V38.7783C8.25611 40.1733 9.59656 41.3004 11.2557 41.3004C12.9149 41.3004 14.2554 40.1733 14.2554 38.7783Z" fill="black"/>
</svg>
